<svg xmlns="http://www.w3.org/2000/svg" width="120" height="120" viewBox="0 0 120 120" fill="none">
  <rect width="120" height="120" rx="12" fill="#1d2d47"/>
  <!-- Left tower -->
  <rect x="15" y="15" width="8" height="80" rx="2" fill="#3670b0"/>
  <!-- Right tower -->
  <rect x="97" y="15" width="8" height="80" rx="2" fill="#3670b0"/>
  <!-- Top crossbar -->
  <rect x="15" y="15" width="90" height="6" rx="2" fill="#4a90d9"/>
  <!-- Left weight stack -->
  <rect x="12" y="30" width="14" height="50" rx="2" fill="#4a90d9"/>
  <line x1="14" y1="38" x2="24" y2="38" stroke="#1d2d47" stroke-width="2"/>
  <line x1="14" y1="46" x2="24" y2="46" stroke="#1d2d47" stroke-width="2"/>
  <line x1="14" y1="54" x2="24" y2="54" stroke="#1d2d47" stroke-width="2"/>
  <line x1="14" y1="62" x2="24" y2="62" stroke="#1d2d47" stroke-width="2"/>
  <line x1="14" y1="70" x2="24" y2="70" stroke="#1d2d47" stroke-width="2"/>
  <!-- Right weight stack -->
  <rect x="94" y="30" width="14" height="50" rx="2" fill="#4a90d9"/>
  <line x1="96" y1="38" x2="106" y2="38" stroke="#1d2d47" stroke-width="2"/>
  <line x1="96" y1="46" x2="106" y2="46" stroke="#1d2d47" stroke-width="2"/>
  <line x1="96" y1="54" x2="106" y2="54" stroke="#1d2d47" stroke-width="2"/>
  <line x1="96" y1="62" x2="106" y2="62" stroke="#1d2d47" stroke-width="2"/>
  <line x1="96" y1="70" x2="106" y2="70" stroke="#1d2d47" stroke-width="2"/>
  <!-- Cables -->
  <line x1="19" y1="21" x2="45" y2="55" stroke="#6aa8f0" stroke-width="2"/>
  <line x1="101" y1="21" x2="75" y2="55" stroke="#6aa8f0" stroke-width="2"/>
  <!-- Handles -->
  <rect x="40" y="52" width="12" height="6" rx="2" fill="#6aa8f0"/>
  <rect x="68" y="52" width="12" height="6" rx="2" fill="#6aa8f0"/>
  <!-- Base -->
  <rect x="10" y="95" width="100" height="8" rx="2" fill="#3670b0"/>
</svg>

