<svg xmlns="http://www.w3.org/2000/svg" width="120" height="120" viewBox="0 0 120 120" fill="none">
  <rect width="120" height="120" rx="12" fill="#1d2d47"/>
  <!-- Main frame -->
  <rect x="55" y="15" width="10" height="80" rx="2" fill="#3670b0"/>
  <!-- Arm pads (raised position) -->
  <rect x="15" y="35" width="35" height="8" rx="2" fill="#6aa8f0"/>
  <rect x="70" y="35" width="35" height="8" rx="2" fill="#6aa8f0"/>
  <!-- Arm pad cushions -->
  <rect x="15" y="32" width="12" height="14" rx="3" fill="#4a90d9"/>
  <rect x="93" y="32" width="12" height="14" rx="3" fill="#4a90d9"/>
  <!-- Weight stack -->
  <rect x="50" y="50" width="20" height="35" rx="2" fill="#4a90d9"/>
  <line x1="52" y1="58" x2="68" y2="58" stroke="#1d2d47" stroke-width="2"/>
  <line x1="52" y1="66" x2="68" y2="66" stroke="#1d2d47" stroke-width="2"/>
  <line x1="52" y1="74" x2="68" y2="74" stroke="#1d2d47" stroke-width="2"/>
  <!-- Seat back -->
  <rect x="42" y="50" width="6" height="25" rx="2" fill="#4a90d9"/>
  <!-- Seat -->
  <rect x="30" y="75" width="30" height="6" rx="2" fill="#4a90d9"/>
  <!-- Base -->
  <rect x="25" y="95" width="70" height="8" rx="2" fill="#3670b0"/>
</svg>

