<svg xmlns="http://www.w3.org/2000/svg" width="120" height="120" viewBox="0 0 120 120" fill="none">
  <rect width="120" height="120" rx="12" fill="#1d2d47"/>
  <!-- Main frame -->
  <rect x="80" y="25" width="10" height="70" rx="2" fill="#3670b0"/>
  <!-- Top crossbar -->
  <rect x="75" y="25" width="20" height="6" rx="2" fill="#4a90d9"/>
  <!-- Handle -->
  <rect x="30" y="50" width="20" height="8" rx="2" fill="#6aa8f0"/>
  <!-- Cable -->
  <line x1="50" y1="54" x2="80" y2="54" stroke="#6aa8f0" stroke-width="2"/>
  <!-- Weight stack -->
  <rect x="75" y="40" width="20" height="40" rx="2" fill="#4a90d9"/>
  <line x1="77" y1="48" x2="93" y2="48" stroke="#1d2d47" stroke-width="2"/>
  <line x1="77" y1="56" x2="93" y2="56" stroke="#1d2d47" stroke-width="2"/>
  <line x1="77" y1="64" x2="93" y2="64" stroke="#1d2d47" stroke-width="2"/>
  <line x1="77" y1="72" x2="93" y2="72" stroke="#1d2d47" stroke-width="2"/>
  <!-- Seat -->
  <rect x="20" y="70" width="40" height="6" rx="2" fill="#4a90d9"/>
  <!-- Chest pad -->
  <rect x="55" y="45" width="8" height="25" rx="2" fill="#4a90d9"/>
  <!-- Base -->
  <rect x="15" y="95" width="90" height="8" rx="2" fill="#3670b0"/>
</svg>

