<svg xmlns="http://www.w3.org/2000/svg" width="120" height="120" viewBox="0 0 120 120">
  <rect width="120" height="120" rx="12" fill="#1d2d47"/>
  <!-- Main frame -->
  <rect x="55" y="15" width="10" height="80" rx="2" fill="#3670b0"/>
  <!-- Press handles -->
  <rect x="28" y="32" width="22" height="6" rx="2" fill="#6aa8f0"/>
  <rect x="70" y="32" width="22" height="6" rx="2" fill="#6aa8f0"/>
  <!-- Handle grips -->
  <rect x="22" y="30" width="8" height="10" rx="2" fill="#4a90d9"/>
  <rect x="90" y="30" width="8" height="10" rx="2" fill="#4a90d9"/>
  <!-- Weight stack -->
  <rect x="50" y="50" width="20" height="35" rx="2" fill="#4a90d9"/>
  <rect x="52" y="57" width="16" height="2" fill="#1d2d47"/>
  <rect x="52" y="65" width="16" height="2" fill="#1d2d47"/>
  <rect x="52" y="73" width="16" height="2" fill="#1d2d47"/>
  <!-- Seat back -->
  <rect x="42" y="48" width="6" height="28" rx="2" fill="#4a90d9"/>
  <!-- Seat -->
  <rect x="32" y="76" width="28" height="6" rx="2" fill="#4a90d9"/>
  <!-- Base -->
  <rect x="28" y="95" width="64" height="8" rx="2" fill="#3670b0"/>
</svg>
