<svg xmlns="http://www.w3.org/2000/svg" width="120" height="120" viewBox="0 0 120 120">
  <rect width="120" height="120" rx="12" fill="#1d2d47"/>
  <!-- Left upright -->
  <rect x="22" y="15" width="8" height="80" rx="2" fill="#3670b0"/>
  <!-- Right upright -->
  <rect x="90" y="15" width="8" height="80" rx="2" fill="#3670b0"/>
  <!-- Top crossbar -->
  <rect x="22" y="15" width="76" height="6" rx="2" fill="#4a90d9"/>
  <!-- Guide rails -->
  <rect x="27" y="22" width="3" height="68" rx="1" fill="#4a90d9"/>
  <rect x="90" y="22" width="3" height="68" rx="1" fill="#4a90d9"/>
  <!-- Barbell -->
  <rect x="18" y="45" width="84" height="6" rx="3" fill="#6aa8f0"/>
  <!-- Weight plates left -->
  <rect x="12" y="38" width="8" height="20" rx="2" fill="#4a90d9"/>
  <!-- Weight plates right -->
  <rect x="100" y="38" width="8" height="20" rx="2" fill="#4a90d9"/>
  <!-- Safety catches -->
  <rect x="30" y="68" width="14" height="4" rx="1" fill="#6aa8f0"/>
  <rect x="76" y="68" width="14" height="4" rx="1" fill="#6aa8f0"/>
  <!-- Base -->
  <rect x="18" y="95" width="84" height="8" rx="2" fill="#3670b0"/>
</svg>
