<svg xmlns="http://www.w3.org/2000/svg" width="120" height="120" viewBox="0 0 120 120" fill="none">
  <rect width="120" height="120" rx="12" fill="#1d2d47"/>
  <!-- Left upright -->
  <rect x="20" y="15" width="8" height="80" rx="2" fill="#3670b0"/>
  <!-- Right upright -->
  <rect x="92" y="15" width="8" height="80" rx="2" fill="#3670b0"/>
  <!-- Top crossbar -->
  <rect x="20" y="15" width="80" height="6" rx="2" fill="#4a90d9"/>
  <!-- Guide rails -->
  <rect x="25" y="25" width="3" height="65" rx="1" fill="#4a90d9"/>
  <rect x="92" y="25" width="3" height="65" rx="1" fill="#4a90d9"/>
  <!-- Barbell -->
  <rect x="15" y="45" width="90" height="6" rx="3" fill="#6aa8f0"/>
  <!-- Weight plates left -->
  <rect x="10" y="38" width="8" height="20" rx="2" fill="#4a90d9"/>
  <!-- Weight plates right -->
  <rect x="102" y="38" width="8" height="20" rx="2" fill="#4a90d9"/>
  <!-- Safety catches -->
  <rect x="28" y="70" width="15" height="4" rx="1" fill="#6aa8f0"/>
  <rect x="77" y="70" width="15" height="4" rx="1" fill="#6aa8f0"/>
  <!-- Base -->
  <rect x="15" y="95" width="90" height="8" rx="2" fill="#3670b0"/>
</svg>

